<?xml version="1.0" standalone="no"?><!DOCTYPE svg PUBLIC "-//W3C//DTD SVG 1.1//EN" "http://www.w3.org/Graphics/SVG/1.1/DTD/svg11.dtd"><svg t="1586506056568" class="icon" viewBox="0 0 1024 1024" version="1.1" xmlns="http://www.w3.org/2000/svg" p-id="4400" xmlns:xlink="http://www.w3.org/1999/xlink" width="200" height="200"><defs><style type="text/css"></style></defs><path d="M920 912h-896a16 16 0 0 0-16 16v48a16 16 0 0 0 16 16h896a16 16 0 0 0 16-16v-48a16 16 0 0 0-16-16z" fill="#BDBDBD" p-id="4401"></path><path d="M920 904h-896c-13.232 0-24 10.768-24 24v48c0 13.232 10.768 24 24 24h896c13.232 0 24-10.768 24-24v-48c0-13.232-10.768-24-24-24zM928 976a8 8 0 0 1-8 8h-896A8 8 0 0 1 16 976v-48a8 8 0 0 1 8-8h896a8 8 0 0 1 8 8v48z" fill="#37474F" p-id="4402"></path><path d="M24 88a16 16 0 0 0-16 16v48a16 16 0 0 0 16 16H400v-80H24z" fill="#BDBDBD" p-id="4403"></path><path d="M400 80H24C10.768 80 0 90.768 0 104v48c0 13.232 10.768 24 24 24H400a8 8 0 0 0 8-8v-80A8 8 0 0 0 400 80z m-8 80h-368a8 8 0 0 1-8-8v-48a8 8 0 0 1 8-8h368v64z" fill="#37474F" p-id="4404"></path><path d="M1000 88H656v80h344a16 16 0 0 0 16-16v-48a16 16 0 0 0-16-16z" fill="#EEEEEE" p-id="4405"></path><path d="M1000 80H656a8 8 0 0 0-8 8v80a8 8 0 0 0 8 8h344c13.232 0 24-10.768 24-24v-48c0-13.232-10.768-24-24-24z m8 72a8 8 0 0 1-8 8h-336V96h336a8 8 0 0 1 8 8v48z" fill="#37474F" p-id="4406"></path><path d="M520 32h-128A40 40 0 0 0 352 72v112a40 40 0 0 0 40 40h128a40 40 0 0 0 40-40v-112A40 40 0 0 0 520 32z" fill="#455A64" p-id="4407"></path><path d="M520 24h-128c-26.464 0-48 21.536-48 48v112c0 26.464 21.536 48 48 48h128c26.464 0 48-21.536 48-48v-112c0-26.464-21.536-48-48-48z m32 160c0 17.648-14.352 32-32 32h-128c-17.648 0-32-14.352-32-32v-112c0-17.648 14.352-32 32-32h128c17.648 0 32 14.352 32 32v112z" fill="#37474F" p-id="4408"></path><path d="M88 88a16 16 0 0 0-16 16v48a16 16 0 0 0 16 16h320v-80h-320z" fill="#EEEEEE" p-id="4409"></path><path d="M408 80h-320C74.768 80 64 90.768 64 104v48c0 13.232 10.768 24 24 24h320a8 8 0 0 0 8-8v-80a8 8 0 0 0-8-8z m-8 80H88a8 8 0 0 1-8-8v-48a8 8 0 0 1 8-8H400v64z" fill="#37474F" p-id="4410"></path><path d="M616 32h-128A40 40 0 0 0 448 72v112a40 40 0 0 0 40 40h128a40 40 0 0 0 40-40v-112A40 40 0 0 0 616 32z" fill="#78909C" p-id="4411"></path><path d="M616 24h-128c-26.464 0-48 21.536-48 48v112c0 26.464 21.536 48 48 48h128c26.464 0 48-21.536 48-48v-112c0-26.464-21.536-48-48-48z m32 160c0 17.648-14.352 32-32 32h-128c-17.648 0-32-14.352-32-32v-112c0-17.648 14.352-32 32-32h128c17.648 0 32 14.352 32 32v112z" fill="#37474F" p-id="4412"></path><path d="M480 64a8 8 0 0 0-8 8v112a8 8 0 0 0 16 0v-112A8 8 0 0 0 480 64z" fill="#B0BEC5" p-id="4413"></path><path d="M624 64a8 8 0 0 0-8 8v112a8 8 0 0 0 16 0v-112A8 8 0 0 0 624 64z" fill="#455A64" p-id="4414"></path><path d="M464 224v96l40 40L544 320v-96z" fill="#EEEEEE" p-id="4415"></path><path d="M544 216h-80a8 8 0 0 0-8 8v96c0 2.128 0.848 4.16 2.336 5.664l40 40a8.032 8.032 0 0 0 11.328 0l40-40A8.064 8.064 0 0 0 552 320v-96a8 8 0 0 0-8-8z m-8 100.688l-32 32-32-32V232h64v84.688z" fill="#37474F" p-id="4416"></path><path d="M1000 912h-896a16 16 0 0 0-16 16v48a16 16 0 0 0 16 16h896a16 16 0 0 0 16-16v-48a16 16 0 0 0-16-16z" fill="#EEEEEE" p-id="4417"></path><path d="M1000 904h-896c-13.232 0-24 10.768-24 24v48c0 13.232 10.768 24 24 24h896c13.232 0 24-10.768 24-24v-48c0-13.232-10.768-24-24-24zM1008 976a8 8 0 0 1-8 8h-896A8 8 0 0 1 96 976v-48a8 8 0 0 1 8-8h896a8 8 0 0 1 8 8v48z" fill="#37474F" p-id="4418"></path><path d="M680 784h-512A40 40 0 0 0 128 824V912h592v-88a40 40 0 0 0-40-40z" fill="#0097A7" p-id="4419"></path><path d="M680 776h-512c-26.464 0-48 21.536-48 48V912a8 8 0 0 0 8 8h592a8 8 0 0 0 8-8v-88c0-26.464-21.536-48-48-48z m32 128h-576v-80c0-17.648 14.352-32 32-32h512c17.648 0 32 14.352 32 32v80z" fill="#37474F" p-id="4420"></path><path d="M840 784h-512a40 40 0 0 0-40 40V912h592v-88a40 40 0 0 0-40-40z" fill="#26C6DA" p-id="4421"></path><path d="M840 776h-512c-26.464 0-48 21.536-48 48V912a8 8 0 0 0 8 8h592a8 8 0 0 0 8-8v-88c0-26.464-21.536-48-48-48z m32 128h-576v-80c0-17.648 14.352-32 32-32h512c17.648 0 32 14.352 32 32v80z" fill="#37474F" p-id="4422"></path><path d="M320 816a8 8 0 0 0-8 8v64a8 8 0 0 0 16 0v-64a8 8 0 0 0-8-8z" fill="#80DEEA" p-id="4423"></path><path d="M160 816a8 8 0 0 0-8 8v64a8 8 0 0 0 16 0v-64a8 8 0 0 0-8-8z" fill="#26C6DA" p-id="4424"></path><path d="M848 816a8 8 0 0 0-8 8v64a8 8 0 0 0 16 0v-64a8 8 0 0 0-8-8z" fill="#0097A7" p-id="4425"></path><path d="M544 280h-80a8 8 0 0 0 0 16h80a8 8 0 0 0 0-16zM544 248h-80a8 8 0 0 0 0 16h80a8 8 0 0 0 0-16z" fill="#37474F" p-id="4426"></path><path d="M339.648 680l-0.224 104 141.712-76.016 0.208-104z" fill="#FF7043" p-id="4427"></path><path d="M485.456 597.136a7.968 7.968 0 0 0-7.888-0.192l-141.68 76a7.984 7.984 0 0 0-4.224 7.024l-0.224 104a8.032 8.032 0 0 0 8 8.016c1.296 0 2.592-0.32 3.776-0.96l141.68-76a7.984 7.984 0 0 0 4.224-7.024l0.224-104a8 8 0 0 0-3.888-6.864z m-12.32 106.064l-125.664 67.408 0.176-85.824 125.664-67.408-0.176 85.824z" fill="#37474F" p-id="4428"></path><path d="M367.856 434.512l-153.952 46.448 73.696 73.392 153.952-46.448z" fill="#FF7043" p-id="4429"></path><path d="M447.184 502.24l-73.68-73.376a7.936 7.936 0 0 0-7.952-1.984l-153.952 46.448a8.048 8.048 0 0 0-5.456 5.712 8.048 8.048 0 0 0 2.128 7.616l73.696 73.376a8 8 0 0 0 7.968 2l153.936-46.448a8.048 8.048 0 0 0 5.456-5.712 8.096 8.096 0 0 0-2.144-7.632z m-157.312 43.072l-60.832-60.56 136.544-41.2 60.816 60.56-136.528 41.2z" fill="#37474F" p-id="4430"></path><path d="M674.912 391.264a240.096 240.096 0 0 0-149.488 25.232l-298.48 158.656 55.104 133.04 323.248-98.88a240.048 240.048 0 0 0 123.536-87.856l79.984-109.392-133.904-20.8z" fill="#EEEEEE" p-id="4431"></path><path d="M816.224 408.992a8 8 0 0 0-6.16-4.848l-133.92-20.8a249.344 249.344 0 0 0-154.448 26.08L223.2 568.08c-3.648 1.936-5.216 6.32-3.648 10.128l55.104 133.04a8.016 8.016 0 0 0 9.728 4.592l323.248-98.88a249.536 249.536 0 0 0 127.664-90.784l79.984-109.408a7.984 7.984 0 0 0 0.944-7.776z m-93.84 107.744a233.568 233.568 0 0 1-119.44 84.928l-316.304 96.752-49.552-119.616 292.08-155.248a233.408 233.408 0 0 1 144.48-24.384l120.944 18.784-72.208 98.784z" fill="#37474F" p-id="4432"></path><path d="M199.184 612.64l36.96-15.296 36.736 88.688-36.96 15.312z" fill="#EEEEEE" p-id="4433"></path><path d="M280.256 682.96l-36.736-88.688a8 8 0 0 0-10.464-4.336l-36.96 15.312a8 8 0 0 0-4.336 10.448l36.736 88.688a8.016 8.016 0 0 0 10.448 4.336l36.96-15.312a8 8 0 0 0 4.352-10.448z m-40.016 7.904l-30.608-73.904 22.176-9.184 30.608 73.92-22.176 9.168z" fill="#37474F" p-id="4434"></path><path d="M283.712 544.976l59.824 144.4" fill="#FF7043" p-id="4435"></path><path d="M350.928 686.32l-59.808-144.416a8 8 0 0 0-14.784 6.112l59.808 144.416a8.016 8.016 0 0 0 10.448 4.336 8 8 0 0 0 4.336-10.448z" fill="#37474F" p-id="4436"></path><path d="M535.360556 525.31959a56 56 0 1 0 103.474508-42.860544 56 56 0 1 0-103.474508 42.860544Z" fill="#FF7043" p-id="4437"></path><path d="M646.224 479.408a63.584 63.584 0 0 0-34.624-34.64 63.584 63.584 0 0 0-48.992 0 63.616 63.616 0 0 0-34.64 34.64 63.584 63.584 0 0 0 0 48.992 63.568 63.568 0 0 0 34.64 34.64 63.68 63.68 0 0 0 48.976 0 63.536 63.536 0 0 0 34.624-34.64 63.52 63.52 0 0 0 0.016-48.992z m-14.784 42.864a47.744 47.744 0 0 1-25.968 25.984 47.6 47.6 0 0 1-36.752 0c-11.84-4.912-21.056-14.128-25.968-25.984s-4.912-24.896 0-36.736a47.776 47.776 0 0 1 25.984-25.984c5.92-2.448 12.144-3.68 18.352-3.68a48.064 48.064 0 0 1 44.352 66.4z" fill="#37474F" p-id="4438"></path></svg>