<?xml version="1.0" standalone="no"?><!DOCTYPE svg PUBLIC "-//W3C//DTD SVG 1.1//EN" "http://www.w3.org/Graphics/SVG/1.1/DTD/svg11.dtd"><svg t="1586506097580" class="icon" viewBox="0 0 1024 1024" version="1.1" xmlns="http://www.w3.org/2000/svg" p-id="4993" xmlns:xlink="http://www.w3.org/1999/xlink" width="200" height="200"><defs><style type="text/css"></style></defs><path d="M488.13856 616h-144c-106.032 0-192 85.968-192 192v176h528v-176c0-106.032-85.952-192-192-192z" fill="#FFA000" p-id="4994"></path><path d="M488.13856 608h-144C233.85056 608 144.13856 697.712 144.13856 808v176a8 8 0 0 0 8 8h528a8 8 0 0 0 8-8v-176C688.13856 697.712 598.42656 608 488.13856 608zM672.13856 976H160.13856V808C160.13856 706.544 242.68256 624 344.13856 624h144C589.59456 624 672.13856 706.544 672.13856 808V976z" fill="#37474F" p-id="4995"></path><path d="M344.13856 640C251.49856 640 176.13856 715.36 176.13856 808v144a8 8 0 0 0 16 0v-144c0-83.808 68.192-152 152-152a8 8 0 0 0 0-16z" fill="#FFCA28" p-id="4996"></path><path d="M284.13856 360m-64 0a64 64 0 1 0 128 0 64 64 0 1 0-128 0Z" fill="#BDBDBD" p-id="4997"></path><path d="M284.13856 288c-39.696 0-72 32.304-72 72s32.304 72 72 72 72-32.304 72-72-32.304-72-72-72z m0 128c-30.88 0-56-25.12-56-56s25.12-56 56-56 56 25.12 56 56-25.12 56-56 56z" fill="#37474F" p-id="4998"></path><path d="M616.13856 616h-176c-106.032 0-192 85.968-192 192v176h560v-176c0-106.032-85.952-192-192-192z" fill="#FFCA28" p-id="4999"></path><path d="M616.13856 608h-176C329.85056 608 240.13856 697.712 240.13856 808v176a8 8 0 0 0 8 8h560a8 8 0 0 0 8-8v-176C816.13856 697.712 726.42656 608 616.13856 608zM800.13856 976H256.13856V808C256.13856 706.544 338.68256 624 440.13856 624h176C717.59456 624 800.13856 706.544 800.13856 808V976z" fill="#37474F" p-id="5000"></path><path d="M616.13856 616h-176c-106.032 0-192 85.968-192 192v176h560v-176c0-106.032-85.952-192-192-192z" fill="#FFCA28" p-id="5001"></path><path d="M616.13856 608h-176C329.85056 608 240.13856 697.712 240.13856 808v176a8 8 0 0 0 8 8h560a8 8 0 0 0 8-8v-176C816.13856 697.712 726.42656 608 616.13856 608zM800.13856 976H256.13856V808C256.13856 706.544 338.68256 624 440.13856 624h176C717.59456 624 800.13856 706.544 800.13856 808V976z" fill="#37474F" p-id="5002"></path><path d="M440.13856 640C347.49856 640 272.13856 715.36 272.13856 808v144a8 8 0 0 0 16 0v-144c0-83.808 68.192-152 152-152a8 8 0 0 0 0-16z" fill="#FFE082" p-id="5003"></path><path d="M616.13856 640a8 8 0 0 0 0 16c83.808 0 152 68.192 152 152v144a8 8 0 0 0 16 0v-144C784.13856 715.36 708.77856 640 616.13856 640z" fill="#FFA000" p-id="5004"></path><path d="M284.13856 200v224c0 106.032 85.968 192 192 192h40c106.032 0 192-85.968 192-192v-224h-424z" fill="#EEEEEE" p-id="5005"></path><path d="M708.13856 192h-424a8 8 0 0 0-8 8v224c0 110.288 89.712 200 200 200h40c110.288 0 200-89.712 200-200v-224a8 8 0 0 0-8-8z m-8 232c0 101.456-82.544 184-184 184h-40c-101.456 0-184-82.544-184-184V208h408v216z" fill="#37474F" p-id="5006"></path><path d="M668.13856 248h-272a40 40 0 0 0-40 40v112a40 40 0 0 0 40 40h272a40 40 0 0 0 40-40v-112a40 40 0 0 0-40-40z" fill="#455A64" p-id="5007"></path><path d="M668.13856 240h-272c-26.464 0-48 21.536-48 48v112c0 26.464 21.536 48 48 48h272c26.464 0 48-21.536 48-48v-112c0-26.464-21.536-48-48-48z m32 160c0 17.648-14.352 32-32 32h-272c-17.648 0-32-14.352-32-32v-112c0-17.648 14.352-32 32-32h272c17.648 0 32 14.352 32 32v112z" fill="#37474F" p-id="5008"></path><path d="M732.13856 248h-272a40 40 0 0 0-40 40v112a40 40 0 0 0 40 40h272a40 40 0 0 0 40-40v-112a40 40 0 0 0-40-40z" fill="#78909C" p-id="5009"></path><path d="M732.13856 240h-272c-26.464 0-48 21.536-48 48v112c0 26.464 21.536 48 48 48h272c26.464 0 48-21.536 48-48v-112c0-26.464-21.536-48-48-48z m32 160c0 17.648-14.352 32-32 32h-272c-17.648 0-32-14.352-32-32v-112c0-17.648 14.352-32 32-32h272c17.648 0 32 14.352 32 32v112z" fill="#37474F" p-id="5010"></path><path d="M452.13856 280a8 8 0 0 0-8 8v112a8 8 0 0 0 16 0v-112a8 8 0 0 0-8-8z" fill="#B0BEC5" p-id="5011"></path><path d="M740.13856 280a8 8 0 0 0-8 8v112a8 8 0 0 0 16 0v-112a8 8 0 0 0-8-8z" fill="#455A64" p-id="5012"></path><path d="M356.13856 287.424h64v112h-64z" fill="#BDBDBD" p-id="5013"></path><path d="M420.13856 279.408h-64a8 8 0 0 0-8 8v112a8 8 0 0 0 8 8h64a8 8 0 0 0 8-8v-112a8 8 0 0 0-8-8z m-8 112h-48v-96h48v96z" fill="#37474F" p-id="5014"></path><path d="M284.13856 200h72V336h-72z" fill="#455A64" p-id="5015"></path><path d="M356.13856 192h-72a8 8 0 0 0-8 8V336a8 8 0 0 0 8 8h72a8 8 0 0 0 8-8v-136a8 8 0 0 0-8-8z m-8 136h-56V208h56v120z" fill="#37474F" p-id="5016"></path><path d="M428.13856 40a144 144 0 0 0-144 144v16h424l80-160h-360z" fill="#78909C" p-id="5017"></path><path d="M794.93856 35.792A8 8 0 0 0 788.13856 32h-360c-83.808 0-152 68.192-152 152v16a8 8 0 0 0 8 8h424a8 8 0 0 0 7.152-4.416l80-160a7.952 7.952 0 0 0-0.352-7.792zM703.19456 192H292.13856v-8c0-74.992 61.008-136 136-136h347.056l-72 144z" fill="#37474F" p-id="5018"></path><path d="M723.94656 64.848a8 8 0 0 0-10.736 3.584l-48 96a8 8 0 1 0 14.32 7.152l48-96a8 8 0 0 0-3.584-10.736zM772.13856 32l0.08 16V32h-0.08z" fill="#455A64" p-id="5019"></path><path d="M428.13856 64c-59.296 0-110.352 44.224-118.784 102.864a8 8 0 0 0 15.856 2.272C332.49056 118.32 376.76256 80 428.13856 80a8 8 0 0 0 0-16z" fill="#B0BEC5" p-id="5020"></path><path d="M472.13856 472a64 64 0 0 0 128 0h-128z" fill="#EEEEEE" p-id="5021"></path><path d="M600.13856 464h-128a8 8 0 0 0-8 8c0 39.696 32.304 72 72 72s72-32.304 72-72a8 8 0 0 0-8-8z m-64 64a56.08 56.08 0 0 1-55.424-48h110.864a56.112 56.112 0 0 1-55.44 48z" fill="#37474F" p-id="5022"></path><path d="M284.13856 311.424h88v64h-88z" fill="#0097A7" p-id="5023"></path><path d="M372.13856 303.408h-88a8 8 0 0 0-8 8v64a8 8 0 0 0 8 8h88a8 8 0 0 0 8-8v-64a8 8 0 0 0-8-8z m-8 64h-72v-48h72v48z" fill="#37474F" p-id="5024"></path><path d="M872.13856 536m-96 0a96 96 0 1 0 192 0 96 96 0 1 0-192 0Z" fill="#26C6DA" p-id="5025"></path><path d="M872.13856 432c-57.344 0-104 46.656-104 104s46.656 104 104 104 104-46.656 104-104-46.656-104-104-104z m0 192c-48.528 0-88-39.472-88-88s39.472-88 88-88 88 39.472 88 88-39.472 88-88 88z" fill="#37474F" p-id="5026"></path><path d="M1000.13856 520h-256a16 16 0 0 0 0 32h256a16 16 0 0 0 0-32z" fill="#EEEEEE" p-id="5027"></path><path d="M1000.13856 512h-256c-13.232 0-24 10.768-24 24s10.768 24 24 24h256c13.232 0 24-10.768 24-24s-10.768-24-24-24z m0 32h-256a8 8 0 0 1 0-16h256a8 8 0 0 1 0 16z" fill="#37474F" p-id="5028"></path><path d="M161.21056 215.632a16 16 0 0 0-9.04-26.992l-27.12-4.144a15.984 15.984 0 0 1-12.064-9.024l-11.552-24.608c-5.76-12.272-23.216-12.272-28.96 0l-11.552 24.624a16.048 16.048 0 0 1-12.064 9.024l-27.12 4.128a16 16 0 0 0-9.04 26.992l20.608 21.136a15.984 15.984 0 0 1 4.336 13.744l-4.72 28.976a16 16 0 0 0 23.536 16.576l22.752-12.576c4.816-2.656 10.672-2.656 15.488 0l22.752 12.576a16 16 0 0 0 23.536-16.576l-4.72-28.976c-0.816-5.008 0.8-10.112 4.336-13.744l20.608-21.136z" fill="#FF7043" p-id="5029"></path><path d="M166.93856 221.216c6.32-6.464 8.448-15.808 5.584-24.384a23.888 23.888 0 0 0-19.12-16.096l-27.12-4.144a7.904 7.904 0 0 1-6.016-4.512l-11.584-24.624c-4-8.512-12.32-13.808-21.728-13.808s-17.728 5.296-21.728 13.808l-11.552 24.624a8.032 8.032 0 0 1-6.032 4.512l-27.104 4.144c-8.928 1.36-16.272 7.536-19.136 16.112s-0.736 17.904 5.584 24.368l20.624 21.136a8 8 0 0 1 2.16 6.864l-4.72 28.992a23.84 23.84 0 0 0 9.872 23.488 23.936 23.936 0 0 0 25.44 1.376l22.768-12.576a7.904 7.904 0 0 1 7.728 0l22.752 12.576c8.096 4.48 17.856 3.968 25.424-1.376 7.584-5.328 11.36-14.336 9.872-23.488l-4.72-28.992a7.984 7.984 0 0 1 2.176-6.864l20.576-21.136z m-32.064 9.952a24.064 24.064 0 0 0-6.512 20.624l4.72 28.992a7.808 7.808 0 0 1-3.296 7.824 7.872 7.872 0 0 1-8.48 0.464l-22.736-12.592a23.84 23.84 0 0 0-23.216 0l-22.752 12.576a7.872 7.872 0 0 1-8.48-0.464 7.84 7.84 0 0 1-3.296-7.824l4.72-28.976a24.112 24.112 0 0 0-6.512-20.624l-20.624-21.136c-2.128-2.192-2.832-5.232-1.856-8.128s3.36-4.912 6.384-5.376l27.104-4.144a24 24 0 0 0 18.112-13.52l11.552-24.624c2-4.272 6.048-4.608 7.248-4.608s5.232 0.336 7.248 4.608l11.552 24.624c3.408 7.264 10.176 12.32 18.096 13.52l27.12 4.144a7.84 7.84 0 0 1 6.368 5.36 7.84 7.84 0 0 1-1.856 8.128l-20.608 21.152zM376.13856 816a8 8 0 0 0-8 8v160a8 8 0 0 0 16 0v-160a8 8 0 0 0-8-8zM680.13856 816a8 8 0 0 0-8 8v160a8 8 0 0 0 16 0v-160a8 8 0 0 0-8-8zM200.13856 576H8.13856a8 8 0 0 0 0 16h192a8 8 0 0 0 0-16zM248.13856 528h-160a8 8 0 0 0 0 16h160a8 8 0 0 0 0-16zM1016.13856 144h-192a8 8 0 0 0 0 16h192a8 8 0 0 0 0-16zM936.13856 192h-160a8 8 0 0 0 0 16h160a8 8 0 0 0 0-16z" fill="#37474F" p-id="5030"></path></svg>