<?xml version="1.0" standalone="no"?><!DOCTYPE svg PUBLIC "-//W3C//DTD SVG 1.1//EN" "http://www.w3.org/Graphics/SVG/1.1/DTD/svg11.dtd"><svg t="1584031625104" class="icon" viewBox="0 0 1024 1024" version="1.1" xmlns="http://www.w3.org/2000/svg" p-id="1662" xmlns:xlink="http://www.w3.org/1999/xlink" width="200" height="200"><defs><style type="text/css"></style></defs><path d="M576 528c-192 0-177.6 0-181.44-0.96l-65.12-23.68a16 16 0 0 1 10.88-30.08L402.88 496H576a16 16 0 0 1 0 32zM144 596.64a16 16 0 0 1-13.76-24.16l80-132.64a16 16 0 0 1 19.2-6.88l51.04 18.56a16 16 0 0 1-10.88 30.08l-38.72-14.08c-76.8 128.16-73.76 129.12-86.88 129.12zM800 608c-4.64 0 8.32 4.8-168.64-68.96a16 16 0 0 1 12.16-29.44l146.24 60.8 28.8-98.24a16 16 0 0 1 30.72 8.96C814.4 599.52 816 608 800 608zM625.76 501.28a16 16 0 0 1-13.28-24.8l142.24-213.28a16 16 0 0 1 19.52-5.92l112 48a16 16 0 0 1 9.12 19.2l-28.32 96a16 16 0 0 1-30.72-8.96l24.32-82.56-86.72-37.12c-145.28 218.08-136 209.44-148.16 209.44z" fill="#68539B" p-id="1663"></path><path d="M224 480a32 32 0 1 1 32-32 32 32 0 0 1-32 32z m0-32z m0 0z m0 0z m0 0z m0 0z m0 0z m0 0z m0 0z" fill="#FED370" p-id="1664"></path><path d="M128 560a48 48 0 1 0 48 48 48 48 0 0 0-48-48z m0 64a16 16 0 0 1 0-32 16 16 0 0 1 0 32z" fill="#35214C" p-id="1665"></path><path d="M144 608a16 16 0 0 1-32 0 16 16 0 0 1 32 0z" fill="#FD8F07" p-id="1666"></path><path d="M400 544a32 32 0 1 1 32-32 32 32 0 0 1-32 32z m0-32z m0 0z m0 0z m0 0z m0 0z m0 0z m0 0z m0 0z" fill="#FED370" p-id="1667"></path><path d="M608 464a48 48 0 1 0 48 48 48 48 0 0 0-48-48z m0 64a16 16 0 0 1 0-32 16 16 0 0 1 0 32z" fill="#35214C" p-id="1668"></path><path d="M624 512a16 16 0 0 1-32 0 16 16 0 0 1 32 0z" fill="#FD8F07" p-id="1669"></path><path d="M800 624a32 32 0 1 1 32-32 32 32 0 0 1-32 32z m0-32zM880 352a32 32 0 1 1 32-32 32 32 0 0 1-32 32z m0-32zM768 304a32 32 0 1 1 32-32 32 32 0 0 1-32 32z m0-32z" fill="#FED370" p-id="1670"></path><path d="M144 336a16 16 0 0 0-16-16 16 16 0 0 1 0-32 16 16 0 0 0 16-16 16 16 0 0 1 32 0 16 16 0 0 0 16 16 16 16 0 0 1 0 32 16 16 0 0 0-16 16 16 16 0 0 1-32 0z" fill="#FD8F07" p-id="1671"></path><path d="M592 304a16 16 0 0 0-16-16 16 16 0 0 1 0-32 16 16 0 0 0 16-16 16 16 0 0 1 32 0 16 16 0 0 0 16 16 16 16 0 0 1 0 32 16 16 0 0 0-16 16 16 16 0 0 1-32 0z" fill="#FED370" p-id="1672"></path><path d="M560 688a16 16 0 0 0-16-16 16 16 0 0 1 0-32 16 16 0 0 0 16-16 16 16 0 0 1 32 0 16 16 0 0 0 16 16 16 16 0 0 1 0 32 16 16 0 0 0-16 16 16 16 0 0 1-32 0z" fill="#FDA736" p-id="1673"></path><path d="M944 512a16 16 0 0 1-32 0 16 16 0 0 1 32 0zM144 416a16 16 0 0 1-32 0 16 16 0 0 1 32 0zM272 848a16 16 0 0 1-32 0 16 16 0 0 1 32 0z" fill="#FED370" p-id="1674"></path><path d="M528 928a16 16 0 0 1-32 0 16 16 0 0 1 32 0z" fill="#FDA736" p-id="1675"></path><path d="M768 432a16 16 0 0 1-32 0 16 16 0 0 1 32 0zM496 416a16 16 0 0 1-32 0 16 16 0 0 1 32 0zM432 752a16 16 0 0 1-32 0 16 16 0 0 1 32 0z" fill="#FD8F07" p-id="1676"></path><path d="M720 160a16 16 0 0 1-32 0 16 16 0 0 1 32 0z" fill="#FDA736" p-id="1677"></path><path d="M656 768a16 16 0 0 1-32 0 16 16 0 0 1 32 0zM896 688a16 16 0 0 1-32 0 16 16 0 0 1 32 0z" fill="#FD8F07" p-id="1678"></path><path d="M352 256a16 16 0 0 1-32 0 16 16 0 0 1 32 0zM768 768v-16a16 16 0 0 1 32 0v16a16 16 0 0 1-32 0zM832 816h-16a16 16 0 0 1 0-32h16a16 16 0 0 1 0 32zM752 816h-16a16 16 0 0 1 0-32h16a16 16 0 0 1 0 32zM768 848v-16a16 16 0 0 1 32 0v16a16 16 0 0 1-32 0z" fill="#FDA736" p-id="1679"></path><path d="M256 640v-16a16 16 0 0 1 32 0v16a16 16 0 0 1-32 0zM320 688h-16a16 16 0 0 1 0-32h16a16 16 0 0 1 0 32zM240 688h-16a16 16 0 0 1 0-32h16a16 16 0 0 1 0 32zM256 720v-16a16 16 0 0 1 32 0v16a16 16 0 0 1-32 0z" fill="#FED370" p-id="1680"></path><path d="M448 96V80a16 16 0 0 1 32 0v16a16 16 0 0 1-32 0zM512 144h-16a16 16 0 0 1 0-32h16a16 16 0 0 1 0 32zM432 144h-16a16 16 0 0 1 0-32h16a16 16 0 0 1 0 32zM448 176v-16a16 16 0 0 1 32 0v16a16 16 0 0 1-32 0z" fill="#FD8F07" p-id="1681"></path></svg>