<?xml version="1.0" standalone="no"?><!DOCTYPE svg PUBLIC "-//W3C//DTD SVG 1.1//EN" "http://www.w3.org/Graphics/SVG/1.1/DTD/svg11.dtd"><svg t="1584031876848" class="icon" viewBox="0 0 1024 1024" version="1.1" xmlns="http://www.w3.org/2000/svg" p-id="1807" xmlns:xlink="http://www.w3.org/1999/xlink" width="200" height="200"><defs><style type="text/css"></style></defs><path d="M429.92 429.92l-121.44-121.44 4.48-4.48c68.32 0 97.92-6.08 128 23.36 31.68 32.32 33.12 88.64-11.04 102.56z" fill="#84E507" p-id="1808"></path><path d="M715.68 715.68l-76.96-76.96a302.4 302.4 0 0 0 80-174.72h77.6a288 288 0 0 1-80.64 251.68zM761.28 368a61.12 61.12 0 0 1-16 0A32 32 0 0 1 720 336c-29.92 0-2.24 8.48-43.04-59.84A284.32 284.32 0 0 1 761.28 368z" fill="#2DE0C7" p-id="1809"></path><path d="M720 432a304 304 0 0 1-81.28 206.72l-208-208c43.04-13.44 43.68-69.28 10.72-102.56-29.92-29.6-59.68-23.36-128-23.36a288 288 0 0 1 364-28A300.8 300.8 0 0 1 720 432z" fill="#93E6D9" p-id="1810"></path><path d="M537.12 798.88a288 288 0 0 1-227.68-82.08 304 304 0 0 0 145.6 16 103.52 103.52 0 0 0 82.08 66.08zM715.68 715.68A288 288 0 0 1 576 792.8v-102.4a295.04 295.04 0 0 0 62.72-51.68z" fill="#6163AA" p-id="1811"></path><path d="M638.72 638.72a304 304 0 0 1-329.28 78.08c-112-110.88-110.72-290.56-15.2-392.96 11.36-13.6 26.24-27.36 14.24-16z" fill="#898EC9" p-id="1812"></path><path d="M576 690.4c0 114.72 1.12 100.96 0 102.56-6.08 1.44-16 3.2-20.96 3.84-42.4 7.68-84.96-24.16-99.52-64A300.32 300.32 0 0 0 576 690.4z" fill="#513F89" p-id="1813"></path><path d="M576 624v66.4a300.32 300.32 0 0 1-120.96 43.04c-13.12-32 0-46.88-18.72-65.76A40 40 0 0 0 408 656a40 40 0 0 1-40-40V528h112a96 96 0 0 1 96 96zM429.92 429.92A49.6 49.6 0 0 1 416 432a48 48 0 0 0-48 48v48l-48-48h-94.24A288 288 0 0 1 304 312.64c5.92-6.24-8-16.64 125.92 117.28z" fill="#68539B" p-id="1814"></path><path d="M718.24 464a301.12 301.12 0 0 0-14.24-128h16a32 32 0 0 0 25.6 32 68.96 68.96 0 0 0 16 0 272.96 272.96 0 0 1 32.96 86.4 92.32 92.32 0 0 1 1.6 9.6z" fill="#69CC00" p-id="1815"></path><path d="M704 336a301.12 301.12 0 0 1 13.92 128H688a64 64 0 0 1 0-128zM796 464c-0.16-1.6-0.96-4.8 0 0z" fill="#84E507" p-id="1816"></path><path d="M928 592a32 32 0 0 1-32 32h-118.4a32 32 0 0 1-16-53.92c11.52-11.84 25.28-9.44 38.56-9.44v-8a40 40 0 0 1 80 0V560h16A32 32 0 0 1 928 592zM896 336a32 32 0 0 1-32 32h-118.4a32 32 0 0 1 6.4-64h16v-8a40 40 0 1 1 80 0v8h16a32 32 0 0 1 32 32z" fill="#FEF5E3" p-id="1817"></path><path d="M668 258.88a43.84 43.84 0 0 0-56.8 41.28 44 44 0 0 0-70.4 0 43.84 43.84 0 0 0-56.8-41.28A43.68 43.68 0 0 0 462.4 192a43.84 43.84 0 0 0 21.6-66.88 43.84 43.84 0 0 0 56.8-41.28 44 44 0 0 0 70.4 0 43.84 43.84 0 0 0 56.8 41.28A43.84 43.84 0 0 0 689.6 192a43.84 43.84 0 0 0-21.6 66.88z" fill="#FD8F07" p-id="1818"></path><path d="M576 192m-48 0a48 48 0 1 0 96 0 48 48 0 1 0-96 0Z" fill="#FED370" p-id="1819"></path><path d="M352 807.68A72.96 72.96 0 1 1 264.32 720 64 64 0 0 0 352 807.68z" fill="#FED370" p-id="1820"></path><path d="M736 665.76a288 288 0 0 0 20.32-34.56A48 48 0 0 1 782.08 544 269.92 269.92 0 0 0 752 384a48 48 0 0 1-45.76-62.4 264.32 264.32 0 0 0-61.12-46.88 28 28 0 0 0-17.76 25.6 16 16 0 0 1-28.8 9.44 28.8 28.8 0 0 0-44.8 0 16 16 0 0 1-28.8-9.44 28.32 28.32 0 0 0-36.32-26.08 16 16 0 0 1-17.44-6.08c-7.84-10.88 1.28-19.04 3.52-25.6-126.24 17.44-153.6 101.44-177.6 77.44-9.6-9.76-3.36-20.8 7.04-29.44a304 304 0 0 1 185.92-81.6c16-1.44 19.84 16 17.44 33.12A60.48 60.48 0 0 1 549.76 272a63.04 63.04 0 0 1 52.64 0c10.72-20 37.92-36.48 52.16-28.96a292.64 292.64 0 0 1 83.2 65.44 16 16 0 0 1 0 18.72A16 16 0 0 0 752 352h9.28a16 16 0 0 1 13.92 8.16 301.28 301.28 0 0 1 36.48 202.72 16 16 0 0 1-16 13.12H784a16 16 0 0 0-3.2 32 16 16 0 0 1 11.52 21.92 300.32 300.32 0 0 1-29.92 54.4A16 16 0 0 1 736 665.76zM250.56 648.48c-13.76 0-17.6-14.72-24.64-33.12a304 304 0 0 1 35.68-275.36 16 16 0 0 1 22.24-4c26.72 18.56-29.92 37.76-42.24 145.76a272 272 0 0 0 23.2 144 16 16 0 0 1-14.24 22.72zM270.08 695.68a16 16 0 0 1 25.6-19.2 270.72 270.72 0 0 0 238.56 106.56c3.84 21.12 3.36 21.12 1.6 0A272 272 0 0 0 704 704a16 16 0 0 1 23.36 21.76 304 304 0 0 1-190.56 88.8c-3.68-21.12-3.04-21.12-1.6 0a302.72 302.72 0 0 1-265.12-118.88z" fill="#35214C" p-id="1821"></path><path d="M796 480H688a80 80 0 0 1-80-80c0-54.4 40.8-34.88 34.08-14.08A48 48 0 0 0 688 448h88.32A260.16 260.16 0 0 0 752 384a48 48 0 0 1-45.12-32 104.48 104.48 0 0 0-32.8 2.08 16 16 0 0 1-9.6-30.4C678.08 320 683.84 320 720 320a16 16 0 0 1 16 16 16 16 0 0 0 12.8 16 58.56 58.56 0 0 0 12.48 0c11.68 0 16 10.24 21.28 21.6a299.68 299.68 0 0 1 29.28 87.68 16 16 0 0 1-15.84 18.72zM537.12 814.88a116.96 116.96 0 0 1-69.92-33.92A119.68 119.68 0 0 1 432 696a23.84 23.84 0 0 0-24-24 56 56 0 0 1-56-56V528a16 16 0 0 1 16-16h32a16 16 0 0 1 0 32h-16v72a24 24 0 0 0 24 24 55.84 55.84 0 0 1 56 56 87.68 87.68 0 0 0 73.6 86.72c7.84 0 16-1.6 22.4-2.88V624a80 80 0 0 0-80-80h-16a16 16 0 0 1 0-32h16a112 112 0 0 1 112 112v168.8a16 16 0 0 1-12.32 16 269.92 269.92 0 0 1-42.56 6.08zM576 792.8z" fill="#35214C" p-id="1822"></path><path d="M368 544c-8.8 0-7.36 0-55.04-48-94.88 0-92.8 1.92-99.2-5.28a16 16 0 0 1-3.84-12.48 301.6 301.6 0 0 1 51.68-138.24A16 16 0 0 1 288 358.24 270.24 270.24 0 0 0 244.32 464H320c8.8 0 11.04 4.32 32 25.6V480a64 64 0 0 1 64-64c33.92 0 44.64-45.6 13.28-77.44C404.32 313.92 376.96 320 320 320a16 16 0 0 1-22.4-22.88c11.52-11.84 3.2-9.12 86.88-9.12 110.4 0 130.56 160 32 160a32 32 0 0 0-32 32c-0.48 37.76 4.8 64-16.48 64zM816 832c-9.28 0-1.6 5.12-132.8-126.08a16 16 0 0 1 22.72-22.72l121.44 121.44A16 16 0 0 1 816 832z" fill="#35214C" p-id="1823"></path><path d="M649.44 665.44c-9.76 0 19.84 26.56-452.8-446.08a16 16 0 0 1 22.72-22.72L660.8 638.08a16 16 0 0 1-11.36 27.36zM576 256a64 64 0 0 1-64-71.68 16 16 0 0 1 32 7.68 32 32 0 1 0 32-32c-22.08 4.8-30.56-32 0-32a64 64 0 0 1 0 128z" fill="#35214C" p-id="1824"></path><path d="M524.8 300.32a28.32 28.32 0 0 0-36.32-26.08 16 16 0 0 1-17.44-6.08c-9.76-13.6 5.12-18.24 5.12-34.56a27.68 27.68 0 0 0-18.88-25.6 16 16 0 0 1 0-30.4 27.84 27.84 0 0 0 13.76-42.4 16 16 0 0 1 17.44-24.64 28.32 28.32 0 0 0 36.32-26.88 16 16 0 0 1 28.8-9.44 28.8 28.8 0 0 0 44.8 0 16 16 0 0 1 28.8 9.44 28.48 28.48 0 0 0 36.32 26.08 16 16 0 0 1 17.44 6.08c9.76 13.6-5.12 18.24-5.12 34.56a28 28 0 0 0 18.88 26.4 16 16 0 0 1 10.08 20.32c-9.76 28.48-67.36-5.12-60.32-55.04A60.48 60.48 0 0 1 602.24 112a62.72 62.72 0 0 1-52.48 0 60.48 60.48 0 0 1-42.24 30.56 60.16 60.16 0 0 1-16 49.76 60.64 60.64 0 0 1 16 50.08A60.48 60.48 0 0 1 549.76 272a62.72 62.72 0 0 1 52.48 0A60 60 0 0 1 672 243.52a16 16 0 0 1-8.96 30.72 27.68 27.68 0 0 0-36.32 26.08 16 16 0 0 1-28.8 9.44 28.8 28.8 0 0 0-44.8 0 16 16 0 0 1-28.32-9.44zM280.96 880c-63.04 0-104.16-68.64-74.08-80a16 16 0 0 1 20.48 9.6 57.12 57.12 0 0 0 91.2 23.68 80 80 0 0 1-80-80 63.04 63.04 0 0 0-6.08 8.48 16 16 0 0 1-27.52-16A88.32 88.32 0 0 1 260.8 704a16 16 0 0 1 16.96 24.16 48 48 0 0 0 39.68 73.28c24.48 0 29.44-17.44 43.84-7.36 21.12 15.52-14.72 85.92-80.32 85.92zM896 640h-32a16 16 0 0 1 0-32h32a16 16 0 0 0 0-32h-16a16 16 0 0 1-16-16v-8a24 24 0 0 0-48 0v8a16 16 0 0 1-16 16h-16a16 16 0 0 0 0 32h16a16 16 0 0 1 0 32h-16a48 48 0 1 1 0-96 56 56 0 0 1 112 0 48 48 0 1 1 0 96zM864 384c-121.28 0-115.52 0-122.08-1.12A48 48 0 0 1 752 288a56 56 0 0 1 101.28-24 16 16 0 0 1-26.56 17.92 24 24 0 0 0-42.72 14.08v8a16 16 0 0 1-16 16h-16a16 16 0 0 0-3.2 32H864a16 16 0 0 0 7.84-29.92 16 16 0 0 1-6.08-21.76C877.76 278.88 912 304 912 336a48 48 0 0 1-48 48z" fill="#35214C" p-id="1825"></path><path d="M112 496a16 16 0 0 1-32 0 16 16 0 0 1 32 0z" fill="#FD8F07" p-id="1826"></path><path d="M208 624a16 16 0 0 1-32 0 16 16 0 0 1 32 0z" fill="#FDA736" p-id="1827"></path><path d="M208 320a16 16 0 0 1-32 0 16 16 0 0 1 32 0z" fill="#FED370" p-id="1828"></path><path d="M432 880a16 16 0 0 1-32 0 16 16 0 0 1 32 0z" fill="#FD7504" p-id="1829"></path><path d="M720 800a16 16 0 0 1-32 0 16 16 0 0 1 32 0z" fill="#FDA736" p-id="1830"></path><path d="M656 912a16 16 0 0 1-32 0 16 16 0 0 1 32 0z" fill="#FD8F07" p-id="1831"></path></svg>