<?xml version="1.0" standalone="no"?><!DOCTYPE svg PUBLIC "-//W3C//DTD SVG 1.1//EN" "http://www.w3.org/Graphics/SVG/1.1/DTD/svg11.dtd"><svg t="1584032025424" class="icon" viewBox="0 0 1024 1024" version="1.1" xmlns="http://www.w3.org/2000/svg" p-id="2099" xmlns:xlink="http://www.w3.org/1999/xlink" width="200" height="200"><defs><style type="text/css"></style></defs><path d="M901.28 695.52a144.8 144.8 0 0 0-119.84 150.24A145.12 145.12 0 0 0 608 929.28a144.96 144.96 0 0 0-192 0 143.04 143.04 0 0 0-40-54.4 144 144 0 0 1 184.32 6.4 145.12 145.12 0 0 1 133.76-88.96c44.16 0 39.36 13.6 39.36-2.24a144 144 0 0 1 120-142.56A145.12 145.12 0 0 1 896 460a145.28 145.28 0 0 1-53.12-163.52A144 144 0 0 0 901.28 320 145.12 145.12 0 0 0 944 508a145.12 145.12 0 0 0-42.72 187.52z" fill="#FD7504" p-id="2100"></path><path d="M853.28 647.52a144.8 144.8 0 0 0-119.84 150.24A145.12 145.12 0 0 0 560 881.28a144 144 0 0 0-184.32-6.4 144 144 0 0 0-93.76-34.56c-44.16 0-39.36 13.6-39.36-2.24a144 144 0 0 0-69.44-123.52C112 677.28 117.76 717.6 133.12 672A145.28 145.28 0 0 0 80 508 145.44 145.44 0 0 0 122.72 320a144.8 144.8 0 0 0 119.84-150.24A145.12 145.12 0 0 0 416 86.72a144 144 0 0 0 184.32 6.4c12-8.48 4-10.4 17.92 13.12A145.28 145.28 0 0 0 741.92 176c44.16 0 39.36-13.6 39.36 2.24a145.76 145.76 0 0 0 61.6 118.56A145.28 145.28 0 0 0 896 460a145.12 145.12 0 0 0-42.72 187.52z" fill="#FD8F07" p-id="2101"></path><path d="M800 508C800 784 448 900.96 282.56 681.76c185.44 141.12 461.44 10.88 461.44-229.76a287.04 287.04 0 0 0-58.24-173.44A288 288 0 0 1 800 508z" fill="#FDA736" p-id="2102"></path><path d="M744 452c0 240-276 370.88-461.44 229.76a291.52 291.52 0 0 1-41.6-76C157.44 371.2 389.44 149.28 617.12 240a277.28 277.28 0 0 1 68.48 38.56 286.4 286.4 0 0 1 58.4 173.44z" fill="#FED370" p-id="2103"></path><path d="M225.92 615.36A304 304 0 0 1 528.96 208a16 16 0 0 1-1.92 32 272 272 0 1 0 155.36 483.36 16 16 0 0 1 20.16 24.96 304 304 0 0 1-476.64-132.96zM723.84 682.4c126.08-155.84 41.76-385.44-137.92-432a16 16 0 0 1 8-31.04C796 272 889.76 528 748.8 702.56a16 16 0 0 1-24.96-20.16z" fill="#35214C" p-id="2104"></path><path d="M512 752a240 240 0 0 1-240-240 16 16 0 0 1 32 0 208 208 0 0 0 208 208 16 16 0 0 1 0 32zM736 528c-29.6 0-1.76-38.88-38.88-110.56A208 208 0 0 0 512 304a16 16 0 0 1 0-32 240 240 0 0 1 240 240 16 16 0 0 1-16 16z" fill="#FD8F07" p-id="2105"></path><path d="M608 949.28c-13.76 0-22.72-23.36-68-33.28a16 16 0 0 1 7.04-32 164.16 164.16 0 0 1 55.36 24 160 160 0 0 1 163.2-78.56 160 160 0 0 1 112-141.6 161.12 161.12 0 0 1 40.32-176 161.76 161.76 0 0 1-46.08-77.12 16 16 0 0 1 31.04-8 128.96 128.96 0 0 0 49.44 72.16 16 16 0 0 1 0 25.92 129.12 129.12 0 0 0-37.92 166.88 16 16 0 0 1-11.36 23.52 128 128 0 0 0-106.56 133.44 16 16 0 0 1-20.32 16 129.28 129.28 0 0 0-154.24 74.4 16 16 0 0 1-13.92 10.24zM122.72 414.88a128 128 0 0 0-14.08-82.72 16 16 0 0 1 11.36-23.52A128 128 0 0 0 226.56 176a16 16 0 0 1 20.32-16 129.28 129.28 0 0 0 154.24-74.4 16 16 0 0 1 25.28-5.76 129.12 129.12 0 0 0 171.2 0 16 16 0 0 1 25.28 5.76A128.96 128.96 0 0 0 777.12 160a16 16 0 0 1 20.32 16 128 128 0 0 0 106.56 133.44 16 16 0 0 1 11.36 23.52 130.24 130.24 0 0 0-13.92 39.2 16 16 0 0 1-32-5.76 150.08 150.08 0 0 1 9.12-30.4 160 160 0 0 1-112-141.6 160 160 0 0 1-163.2-78.56 161.28 161.28 0 0 1-181.12 0 160 160 0 0 1-163.2 78.56 160 160 0 0 1-112 141.6 158.72 158.72 0 0 1 8.64 85.12 16 16 0 0 1-32.96-6.24zM416 949.28a16 16 0 0 1-14.72-9.76 128.96 128.96 0 0 0-154.24-74.4 16 16 0 0 1-20.32-16 128 128 0 0 0-106.72-133.76 16 16 0 0 1-11.36-23.52 129.44 129.44 0 0 0-37.92-166.88 16 16 0 0 1 0-25.92 131.52 131.52 0 0 0 30.56-32A16 16 0 0 1 128 486.08 149.76 149.76 0 0 1 105.12 512a161.28 161.28 0 0 1 40.32 176 160 160 0 0 1 112.8 141.6 160 160 0 0 1 163.2 78.56 164.16 164.16 0 0 1 55.36-24 16 16 0 0 1 7.04 32c-45.28 9.76-53.76 33.12-67.84 33.12z" fill="#35214C" p-id="2106"></path></svg>