<?xml version="1.0" standalone="no"?><!DOCTYPE svg PUBLIC "-//W3C//DTD SVG 1.1//EN" "http://www.w3.org/Graphics/SVG/1.1/DTD/svg11.dtd"><svg t="1586501273549" class="icon" viewBox="0 0 1024 1024" version="1.1" xmlns="http://www.w3.org/2000/svg" p-id="3775" xmlns:xlink="http://www.w3.org/1999/xlink" width="200" height="200"><defs><style type="text/css"></style></defs><path d="M920 912h-896a16 16 0 0 0-16 16v48a16 16 0 0 0 16 16h896a16 16 0 0 0 16-16v-48a16 16 0 0 0-16-16z" fill="#BDBDBD" p-id="3776"></path><path d="M920 904h-896c-13.232 0-24 10.768-24 24v48c0 13.232 10.768 24 24 24h896c13.232 0 24-10.768 24-24v-48c0-13.232-10.768-24-24-24zM928 976a8 8 0 0 1-8 8h-896A8 8 0 0 1 16 976v-48a8 8 0 0 1 8-8h896a8 8 0 0 1 8 8v48z" fill="#37474F" p-id="3777"></path><path d="M24 88a16 16 0 0 0-16 16v48a16 16 0 0 0 16 16H400v-80H24z" fill="#BDBDBD" p-id="3778"></path><path d="M400 80H24C10.768 80 0 90.768 0 104v48c0 13.232 10.768 24 24 24H400a8 8 0 0 0 8-8v-80A8 8 0 0 0 400 80z m-8 80h-368a8 8 0 0 1-8-8v-48a8 8 0 0 1 8-8h368v64z" fill="#37474F" p-id="3779"></path><path d="M1000 88H656v80h344a16 16 0 0 0 16-16v-48a16 16 0 0 0-16-16z" fill="#EEEEEE" p-id="3780"></path><path d="M1000 80H656a8 8 0 0 0-8 8v80a8 8 0 0 0 8 8h344c13.232 0 24-10.768 24-24v-48c0-13.232-10.768-24-24-24z m8 72a8 8 0 0 1-8 8h-336V96h336a8 8 0 0 1 8 8v48z" fill="#37474F" p-id="3781"></path><path d="M520 32h-128A40 40 0 0 0 352 72v112a40 40 0 0 0 40 40h128a40 40 0 0 0 40-40v-112A40 40 0 0 0 520 32z" fill="#455A64" p-id="3782"></path><path d="M520 24h-128c-26.464 0-48 21.536-48 48v112c0 26.464 21.536 48 48 48h128c26.464 0 48-21.536 48-48v-112c0-26.464-21.536-48-48-48z m32 160c0 17.648-14.352 32-32 32h-128c-17.648 0-32-14.352-32-32v-112c0-17.648 14.352-32 32-32h128c17.648 0 32 14.352 32 32v112z" fill="#37474F" p-id="3783"></path><path d="M88 88a16 16 0 0 0-16 16v48a16 16 0 0 0 16 16h320v-80h-320z" fill="#EEEEEE" p-id="3784"></path><path d="M408 80h-320C74.768 80 64 90.768 64 104v48c0 13.232 10.768 24 24 24h320a8 8 0 0 0 8-8v-80a8 8 0 0 0-8-8z m-8 80H88a8 8 0 0 1-8-8v-48a8 8 0 0 1 8-8H400v64z" fill="#37474F" p-id="3785"></path><path d="M616 32h-128A40 40 0 0 0 448 72v112a40 40 0 0 0 40 40h128a40 40 0 0 0 40-40v-112A40 40 0 0 0 616 32z" fill="#78909C" p-id="3786"></path><path d="M616 24h-128c-26.464 0-48 21.536-48 48v112c0 26.464 21.536 48 48 48h128c26.464 0 48-21.536 48-48v-112c0-26.464-21.536-48-48-48z m32 160c0 17.648-14.352 32-32 32h-128c-17.648 0-32-14.352-32-32v-112c0-17.648 14.352-32 32-32h128c17.648 0 32 14.352 32 32v112z" fill="#37474F" p-id="3787"></path><path d="M480 64a8 8 0 0 0-8 8v112a8 8 0 0 0 16 0v-112A8 8 0 0 0 480 64z" fill="#B0BEC5" p-id="3788"></path><path d="M624 64a8 8 0 0 0-8 8v112a8 8 0 0 0 16 0v-112A8 8 0 0 0 624 64z" fill="#455A64" p-id="3789"></path><path d="M464 224v96l40 40L544 320v-96z" fill="#EEEEEE" p-id="3790"></path><path d="M544 216h-80a8 8 0 0 0-8 8v96c0 2.128 0.848 4.16 2.336 5.664l40 40a8.032 8.032 0 0 0 11.328 0l40-40A8.064 8.064 0 0 0 552 320v-96a8 8 0 0 0-8-8z m-8 100.688l-32 32-32-32V232h64v84.688z" fill="#37474F" p-id="3791"></path><path d="M1000 912h-896a16 16 0 0 0-16 16v48a16 16 0 0 0 16 16h896a16 16 0 0 0 16-16v-48a16 16 0 0 0-16-16z" fill="#EEEEEE" p-id="3792"></path><path d="M1000 904h-896c-13.232 0-24 10.768-24 24v48c0 13.232 10.768 24 24 24h896c13.232 0 24-10.768 24-24v-48c0-13.232-10.768-24-24-24zM1008 976a8 8 0 0 1-8 8h-896A8 8 0 0 1 96 976v-48a8 8 0 0 1 8-8h896a8 8 0 0 1 8 8v48z" fill="#37474F" p-id="3793"></path><path d="M680 784h-512A40 40 0 0 0 128 824V912h592v-88a40 40 0 0 0-40-40z" fill="#0097A7" p-id="3794"></path><path d="M680 776h-512c-26.464 0-48 21.536-48 48V912a8 8 0 0 0 8 8h592a8 8 0 0 0 8-8v-88c0-26.464-21.536-48-48-48z m32 128h-576v-80c0-17.648 14.352-32 32-32h512c17.648 0 32 14.352 32 32v80z" fill="#37474F" p-id="3795"></path><path d="M840 784h-512a40 40 0 0 0-40 40V912h592v-88a40 40 0 0 0-40-40z" fill="#26C6DA" p-id="3796"></path><path d="M840 776h-512c-26.464 0-48 21.536-48 48V912a8 8 0 0 0 8 8h592a8 8 0 0 0 8-8v-88c0-26.464-21.536-48-48-48z m32 128h-576v-80c0-17.648 14.352-32 32-32h512c17.648 0 32 14.352 32 32v80z" fill="#37474F" p-id="3797"></path><path d="M320 816a8 8 0 0 0-8 8v64a8 8 0 0 0 16 0v-64a8 8 0 0 0-8-8z" fill="#80DEEA" p-id="3798"></path><path d="M160 816a8 8 0 0 0-8 8v64a8 8 0 0 0 16 0v-64a8 8 0 0 0-8-8z" fill="#26C6DA" p-id="3799"></path><path d="M848 816a8 8 0 0 0-8 8v64a8 8 0 0 0 16 0v-64a8 8 0 0 0-8-8z" fill="#0097A7" p-id="3800"></path><path d="M544 280h-80a8 8 0 0 0 0 16h80a8 8 0 0 0 0-16zM544 248h-80a8 8 0 0 0 0 16h80a8 8 0 0 0 0-16z" fill="#37474F" p-id="3801"></path><path d="M736 544h96v240h-96z" fill="#FFCA28" p-id="3802"></path><path d="M832 536h-96a8 8 0 0 0-8 8v240a8 8 0 0 0 8 8h96a8 8 0 0 0 8-8V544a8 8 0 0 0-8-8z m-8 240h-80v-224h80v224z" fill="#37474F" p-id="3803"></path><path d="M640 544h96v240h-96z" fill="#FFA000" p-id="3804"></path><path d="M736 536h-96a8 8 0 0 0-8 8v240a8 8 0 0 0 8 8h96a8 8 0 0 0 8-8V544a8 8 0 0 0-8-8z m-8 240h-80v-224h80v224z" fill="#37474F" p-id="3805"></path><path d="M736 416h72v128H736z" fill="#FFCA28" p-id="3806"></path><path d="M808 408H736a8 8 0 0 0-8 8v128a8 8 0 0 0 8 8h72a8 8 0 0 0 8-8v-128a8 8 0 0 0-8-8z m-8 128h-56v-112H800v112z" fill="#37474F" p-id="3807"></path><path d="M664 416H736v128h-72z" fill="#FFA000" p-id="3808"></path><path d="M736 408h-72a8 8 0 0 0-8 8v128a8 8 0 0 0 8 8H736a8 8 0 0 0 8-8v-128a8 8 0 0 0-8-8z m-8 128H672v-112h56v112z" fill="#37474F" p-id="3809"></path><path d="M272 544h96v240h-96z" fill="#FFCA28" p-id="3810"></path><path d="M368 536h-96a8 8 0 0 0-8 8v240a8 8 0 0 0 8 8h96a8 8 0 0 0 8-8V544a8 8 0 0 0-8-8z m-8 240h-80v-224h80v224z" fill="#37474F" p-id="3811"></path><path d="M176 544h96v240h-96z" fill="#FFA000" p-id="3812"></path><path d="M272 536h-96a8 8 0 0 0-8 8v240a8 8 0 0 0 8 8h96a8 8 0 0 0 8-8V544a8 8 0 0 0-8-8z m-8 240h-80v-224h80v224z" fill="#37474F" p-id="3813"></path><path d="M208 568a8 8 0 0 0-8 8v176a8 8 0 0 0 16 0V576a8 8 0 0 0-8-8z" fill="#FFCA28" p-id="3814"></path><path d="M304 568a8 8 0 0 0-8 8v176a8 8 0 0 0 16 0V576a8 8 0 0 0-8-8z" fill="#FFE082" p-id="3815"></path><path d="M672 568a8 8 0 0 0-8 8v176a8 8 0 0 0 16 0V576a8 8 0 0 0-8-8z" fill="#FFCA28" p-id="3816"></path><path d="M768 568a8 8 0 0 0-8 8v176a8 8 0 0 0 16 0V576a8 8 0 0 0-8-8z" fill="#FFE082" p-id="3817"></path><path d="M272 416h72v128H272z" fill="#FFCA28" p-id="3818"></path><path d="M344 408H272a8 8 0 0 0-8 8v128a8 8 0 0 0 8 8h72a8 8 0 0 0 8-8v-128a8 8 0 0 0-8-8z m-8 128h-56v-112H336v112z" fill="#37474F" p-id="3819"></path><path d="M200 416H272v128h-72z" fill="#FFA000" p-id="3820"></path><path d="M272 408h-72a8 8 0 0 0-8 8v128a8 8 0 0 0 8 8H272a8 8 0 0 0 8-8v-128a8 8 0 0 0-8-8z m-8 128H208v-112h56v112zM736 696H368a8 8 0 0 0 0 16h368a8 8 0 0 0 0-16z" fill="#37474F" p-id="3821"></path><path d="M464 601.232a8 8 0 0 0-8 8V704a8 8 0 0 0 16 0v-94.768a8 8 0 0 0-8-8zM552 617.952a8 8 0 0 0-8 8V704a8 8 0 0 0 16 0v-78.048a8 8 0 0 0-8-8z" fill="#37474F" p-id="3822"></path><path d="M896 272a40 40 0 1 0-80 0 40 40 0 1 0 0 80h80a40 40 0 1 0 0-80z" fill="#EEEEEE" p-id="3823"></path><path d="M903.424 264.576C899.84 241.616 879.952 224 856 224s-43.84 17.616-47.424 40.576A48.064 48.064 0 0 0 768 312c0 26.464 21.536 48 48 48h80c26.464 0 48-21.536 48-48a48.064 48.064 0 0 0-40.576-47.424zM896 344h-80c-17.648 0-32-14.352-32-32s14.352-32 32-32a8 8 0 0 0 8-8c0-17.648 14.352-32 32-32s32 14.352 32 32a8 8 0 0 0 8 8c17.648 0 32 14.352 32 32s-14.352 32-32 32z" fill="#37474F" p-id="3824"></path><path d="M284 280h-8v-4a28 28 0 0 0-56 0v4h-8a28 28 0 0 0 0 56h72a28 28 0 0 0 0-56z" fill="#EEEEEE" p-id="3825"></path><path d="M284 272h-0.224c-2-17.984-17.28-32-35.776-32s-33.776 14.016-35.776 32h-0.224C192.144 272 176 288.144 176 308s16.144 36 36 36h72c19.856 0 36-16.144 36-36S303.856 272 284 272z m0 56h-72c-11.024 0-20-8.976-20-20S200.976 288 212 288h8a8 8 0 0 0 8-8v-4c0-11.024 8.976-20 20-20s20 8.976 20 20v4a8 8 0 0 0 8 8h8c11.024 0 20 8.976 20 20s-8.976 20-20 20z" fill="#37474F" p-id="3826"></path><path d="M988 520h-8v-4a28 28 0 0 0-56 0v4h-8a28 28 0 0 0 0 56h72a28 28 0 0 0 0-56z" fill="#EEEEEE" p-id="3827"></path><path d="M988 512h-0.224c-2-17.984-17.28-32-35.776-32s-33.776 14.016-35.776 32h-0.224C896.144 512 880 528.144 880 548s16.144 36 36 36h72c19.856 0 36-16.144 36-36S1007.856 512 988 512z m0 56h-72c-11.024 0-20-8.976-20-20S904.976 528 916 528h8a8 8 0 0 0 8-8v-4c0-11.024 8.976-20 20-20s20 8.976 20 20v4a8 8 0 0 0 8 8h8c11.024 0 20 8.976 20 20s-8.976 20-20 20z" fill="#37474F" p-id="3828"></path><path d="M108 440h-8v-4a28 28 0 0 0-56 0v4h-8a28 28 0 0 0 0 56h72a28 28 0 0 0 0-56z" fill="#EEEEEE" p-id="3829"></path><path d="M108 432h-0.224c-2-17.984-17.28-32-35.776-32s-33.776 14.016-35.776 32H36C16.144 432 0 448.144 0 468s16.144 36 36 36h72C127.856 504 144 487.856 144 468S127.856 432 108 432z m0 56h-72c-11.024 0-20-8.976-20-20S24.976 448 36 448h8a8 8 0 0 0 8-8v-4c0-11.024 8.976-20 20-20s20 8.976 20 20v4a8 8 0 0 0 8 8h8c11.024 0 20 8.976 20 20s-8.976 20-20 20zM742.032 538.752a8.016 8.016 0 0 0-11.296-0.784l-26.512 23.056c-86.784 75.488-217.68 75.488-304.464 0l-26.512-23.056a8.016 8.016 0 0 0-10.512 12.08l26.512 23.056C435.664 613.44 493.824 633.6 552 633.6c58.16 0 116.352-20.176 162.736-60.512l26.512-23.056a7.968 7.968 0 0 0 0.784-11.28z" fill="#37474F" p-id="3830"></path></svg>