<?xml version="1.0" standalone="no"?><!DOCTYPE svg PUBLIC "-//W3C//DTD SVG 1.1//EN" "http://www.w3.org/Graphics/SVG/1.1/DTD/svg11.dtd"><svg t="1586502985348" class="icon" viewBox="0 0 1024 1024" version="1.1" xmlns="http://www.w3.org/2000/svg" p-id="4115" xmlns:xlink="http://www.w3.org/1999/xlink" width="200" height="200"><defs><style type="text/css"></style></defs><path d="M472 512m-448 0a448 448 0 1 0 896 0 448 448 0 1 0-896 0Z" fill="#BDBDBD" p-id="4116"></path><path d="M472 56C220.56 56 16 260.56 16 512s204.56 456 456 456S928 763.44 928 512 723.44 56 472 56z m0 896C229.376 952 32 754.608 32 512S229.376 72 472 72C714.608 72 912 269.392 912 512S714.608 952 472 952z" fill="#37474F" p-id="4117"></path><path d="M552 512m-448 0a448 448 0 1 0 896 0 448 448 0 1 0-896 0Z" fill="#EEEEEE" p-id="4118"></path><path d="M552 56C300.56 56 96 260.56 96 512s204.56 456 456 456S1008 763.44 1008 512 803.44 56 552 56z m0 896C309.376 952 112 754.608 112 512S309.376 72 552 72C794.608 72 992 269.392 992 512S794.608 952 552 952z" fill="#37474F" p-id="4119"></path><path d="M552 88C318.208 88 128 278.208 128 512a8 8 0 0 0 16 0C144 287.024 327.024 104 552 104a8 8 0 0 0 0-16z" fill="#FAFAFA" p-id="4120"></path><path d="M968 504a8 8 0 0 0-8 8c0 224.976-183.024 408-408 408a8 8 0 0 0 0 16C785.792 936 976 745.792 976 512a8 8 0 0 0-8-8z" fill="#BDBDBD" p-id="4121"></path><path d="M552 64c-16.224 0-32.224 0.912-48 2.592V176a16 16 0 0 0 16 16h64a16 16 0 0 0 16-16V66.592a452.928 452.928 0 0 0-48-2.592z" fill="#78909C" p-id="4122"></path><path d="M600.848 58.64a455.296 455.296 0 0 0-97.696 0 8 8 0 0 0-7.152 7.952V176c0 13.232 10.768 24 24 24h64c13.232 0 24-10.768 24-24V66.592a7.984 7.984 0 0 0-7.152-7.952zM592 176c0 4.4-3.6 8-8 8h-64a8 8 0 0 1-8-8V73.84a439.52 439.52 0 0 1 80 0V176zM736 537.04H368c-35.296 0-64 28.704-64 64s28.704 64 64 64h48v16c0 35.296 28.704 64 64 64h144c35.296 0 64-28.704 64-64v-16h48c35.296 0 64-28.704 64-64s-28.704-64-64-64z m0 112h-56a8 8 0 0 0-8 8v24c0 26.464-21.536 48-48 48h-144c-26.464 0-48-21.536-48-48v-24a8 8 0 0 0-8-8H368c-26.464 0-48-21.536-48-48s21.536-48 48-48h368c26.464 0 48 21.536 48 48s-21.536 48-48 48z" fill="#37474F" p-id="4123"></path><path d="M998.656 537.04H105.344a8 8 0 0 0 0 16h893.312a8 8 0 0 0 0-16z" fill="#37474F" p-id="4124"></path><path d="M696 512l-57.216-35.952 15.04-65.872-65.872 15.04-11.936-19.008V192h-48v214.176l-11.968 19.04-65.872-15.04 15.04 65.872L408 512l57.216 35.952-15.04 65.872 65.872-15.04L552 656l35.952-57.216 65.872 15.04-15.04-65.872z" fill="#FF7043" p-id="4125"></path><path d="M704 512a8.048 8.048 0 0 0-3.744-6.784L647.84 472.32l13.776-60.352a8 8 0 0 0-9.584-9.584l-60.336 13.776-7.68-12.24V192a8 8 0 0 0-8-8h-48a8 8 0 0 0-8 8v211.872l-7.712 12.288-60.336-13.776a8 8 0 0 0-9.584 9.584l13.76 60.352-52.4 32.912a7.968 7.968 0 0 0 0 13.552l52.4 32.928-13.76 60.336a8 8 0 0 0 9.584 9.584l60.336-13.776 32.912 52.4a8 8 0 0 0 13.568 0l32.928-52.4 60.336 13.776a8 8 0 0 0 9.584-9.584l-13.776-60.336 52.4-32.928A8 8 0 0 0 704 512z m-69.472 29.168a7.968 7.968 0 0 0-3.552 8.56l12.208 53.456-53.456-12.208a7.904 7.904 0 0 0-8.56 3.552L552 640.976l-29.168-46.432a8 8 0 0 0-8.544-3.536l-53.456 12.208 12.192-53.456a8.032 8.032 0 0 0-3.536-8.56L423.04 512l46.432-29.152a8 8 0 0 0 3.536-8.56l-12.192-53.472 53.456 12.208a7.984 7.984 0 0 0 8.56-3.552l11.952-19.024a7.84 7.84 0 0 0 1.232-4.256V200h32v206.224c0 1.504 0.416 2.992 1.216 4.256l11.936 19.008a8 8 0 0 0 8.56 3.552l53.456-12.208-12.208 53.472a7.968 7.968 0 0 0 3.552 8.56L680.976 512l-46.448 29.168z" fill="#37474F" p-id="4126"></path></svg>