<?xml version="1.0" standalone="no"?><!DOCTYPE svg PUBLIC "-//W3C//DTD SVG 1.1//EN" "http://www.w3.org/Graphics/SVG/1.1/DTD/svg11.dtd"><svg t="1586502115454" class="icon" viewBox="0 0 1024 1024" version="1.1" xmlns="http://www.w3.org/2000/svg" p-id="11806" xmlns:xlink="http://www.w3.org/1999/xlink" width="200" height="200"><defs><style type="text/css"></style></defs><path d="M840 168h-64a8 8 0 0 1 0-16h64a8 8 0 0 1 0 16z" fill="#263238" p-id="11807"></path><path d="M808 200a8 8 0 0 1-8-8V128a8 8 0 0 1 16 0v64a8 8 0 0 1-8 8zM952 256h-64a8 8 0 0 1 0-16h64a8 8 0 0 1 0 16z" fill="#263238" p-id="11808"></path><path d="M920 288a8 8 0 0 1-8-8v-64a8 8 0 0 1 16 0v64a8 8 0 0 1-8 8z" fill="#263238" p-id="11809"></path><path d="M783.536 384.48l-50.912 50.912a56.08 56.08 0 0 1 0.016 79.184l-4.56 4.544A254.48 254.48 0 0 1 768 656h128a382.784 382.784 0 0 0-112.464-271.52z" fill="#FF5252" p-id="11810"></path><path d="M648.88 439.92l4.544-4.544c21.168-21.152 58.048-21.152 79.2 0l50.912-50.912C714.032 314.976 618.032 272 512 272s-202.032 42.976-271.536 112.464l90.512 90.512A255.264 255.264 0 0 1 512 400c50.4 0 97.264 14.768 136.88 39.92z" fill="#FFD740" p-id="11811"></path><path d="M256 656H128a382.848 382.848 0 0 1 112.464-271.536l90.512 90.512A255.264 255.264 0 0 0 256 656z" fill="#4DB6AC" p-id="11812"></path><path d="M896 664h-128a8 8 0 0 1 0-16h119.92c-4.272-203.664-171.264-368-375.92-368S140.336 444.336 136.08 648H256a8 8 0 0 1 0 16H128a8 8 0 0 1-8-8c0-216.16 175.84-392 392-392S904 439.84 904 656a8 8 0 0 1-8 8z" fill="#263238" p-id="11813"></path><path d="M512 688c-8.544 0-16.576-3.328-22.624-9.376S480 664.544 480 656s3.328-16.576 9.376-22.624l181.008-181.008c12.096-12.112 33.184-12.096 45.248 0 6.048 6.048 9.376 14.08 9.376 22.624s-3.328 16.576-9.376 22.624L534.624 678.624c-6.048 6.048-14.08 9.376-22.624 9.376z m181.008-229.008a15.888 15.888 0 0 0-11.312 4.688L500.688 644.688a16 16 0 0 0 22.624 22.624L704.32 486.304a16 16 0 0 0-11.312-27.312z" fill="#263238" p-id="11814"></path><path d="M512 656m-64 0a64 64 0 1 0 128 0 64 64 0 1 0-128 0Z" fill="#40C4FF" p-id="11815"></path><path d="M512 728c-39.696 0-72-32.304-72-72s32.304-72 72-72 72 32.304 72 72-32.304 72-72 72z m0-128c-30.88 0-56 25.12-56 56s25.12 56 56 56 56-25.12 56-56-25.12-56-56-56z" fill="#263238" p-id="11816"></path><path d="M624 896H400a16 16 0 0 1-16-16v-64a16 16 0 0 1 16-16h224a16 16 0 0 1 16 16v64a16 16 0 0 1-16 16z" fill="#40C4FF" p-id="11817"></path><path d="M624 904H400c-13.232 0-24-10.768-24-24v-64c0-13.232 10.768-24 24-24h224c13.232 0 24 10.768 24 24v64c0 13.232-10.768 24-24 24z m-224-96c-4.4 0-8 3.6-8 8v64c0 4.4 3.6 8 8 8h224c4.4 0 8-3.6 8-8v-64c0-4.4-3.6-8-8-8H400zM672 820.624a8 8 0 0 1-5.728-13.6A214.688 214.688 0 0 0 728 656c0-38.336-10.4-76.224-30.08-109.552a8 8 0 1 1 13.792-8.128A231.792 231.792 0 0 1 744 656c0 60.96-23.552 118.56-66.288 162.224a7.936 7.936 0 0 1-5.712 2.4zM352 820.624c-2.08 0-4.16-0.8-5.712-2.4A230.688 230.688 0 0 1 280 656c0-127.92 104.08-232 232-232 41.216 0 81.904 11.168 117.664 32.304a8 8 0 0 1-8.128 13.792A215.36 215.36 0 0 0 512 440c-119.104 0-216 96.896-216 216 0 56.752 21.92 110.368 61.712 151.024a8 8 0 0 1-5.712 13.6zM88 816h-32a8 8 0 0 1 0-16h32a8 8 0 0 1 0 16zM256 816H120a8 8 0 0 1 0-16H256a8 8 0 0 1 0 16z" fill="#263238" p-id="11818"></path><path d="M968 816h-32a8 8 0 0 1 0-16h32a8 8 0 0 1 0 16z" fill="#263238" p-id="11819"></path><path d="M904 816H768a8 8 0 0 1 0-16h136a8 8 0 0 1 0 16z" fill="#263238" p-id="11820"></path></svg>