<?xml version="1.0" standalone="no"?><!DOCTYPE svg PUBLIC "-//W3C//DTD SVG 1.1//EN" "http://www.w3.org/Graphics/SVG/1.1/DTD/svg11.dtd"><svg t="1584030311677" class="icon" viewBox="0 0 1024 1024" version="1.1" xmlns="http://www.w3.org/2000/svg" p-id="1222" xmlns:xlink="http://www.w3.org/1999/xlink" width="200" height="200"><defs><style type="text/css"></style></defs><path d="M465.12 775.84c-47.2 46.88-78.4 88.16-147.04 88.16-144 0-226.08-212-101.92-336l90.56-90.56a112 112 0 0 1 158.4 0 96 96 0 0 1 0 135.84 144 144 0 0 1 0 202.56z" fill="#6163AA" p-id="1223"></path><path d="M427.2 813.6a144 144 0 0 1-211.04 7.36 208 208 0 0 1 0-294.08l50.56-50.56a112 112 0 0 1 158.4 0 96 96 0 0 1 0 135.84 144 144 0 0 1 2.08 201.44z" fill="#898EC9" p-id="1224"></path><path d="M284.16 820.48a56 56 0 0 1 0-112c54.4 0 72.16 72 40 72a16 16 0 0 1-16-16 24 24 0 1 0-24 24 16 16 0 0 1 0 32zM422.56 809.12a48 48 0 1 1 0-94.56 16 16 0 0 1 0 32 16 16 0 1 0 15.2 16 16 16 0 0 1 16-16c30.24-0.8 16 62.56-31.2 62.56zM272.8 612.16a16 16 0 0 1 0-32 8 8 0 1 0-8-8 16 16 0 0 1-16 16c-28.8 0-16.96-56 24-56a40 40 0 1 1 0 80zM171.04 769.12a16 16 0 0 1-11.04-27.36l56.48-56.48a16 16 0 0 1 22.72 22.56c-63.2 62.24-59.36 61.28-68.16 61.28zM340.64 531.52a16 16 0 0 1-11.2-27.36l45.12-45.12a16 16 0 0 1 22.72 22.56c-49.12 49.12-47.68 49.92-56.64 49.92z" fill="#6163AA" p-id="1225"></path><path d="M419.84 633.44a16 16 0 0 1-11.2-27.36l45.12-45.28a16 16 0 0 1 22.72 22.56c-49.12 49.12-47.68 50.08-56.64 50.08z" fill="#35214C" p-id="1226"></path><path d="M864 704a16 16 0 0 0-16-16 16 16 0 0 1 0-32 16 16 0 0 0 16-16 16 16 0 0 1 32 0 16 16 0 0 0 16 16 16 16 0 0 1 0 32 16 16 0 0 0-16 16 16 16 0 0 1-32 0z" fill="#FDA736" p-id="1227"></path><path d="M144 336a16 16 0 0 0-16-16 16 16 0 0 1 0-32 16 16 0 0 0 16-16 16 16 0 0 1 32 0 16 16 0 0 0 16 16 16 16 0 0 1 0 32 16 16 0 0 0-16 16 16 16 0 0 1-32 0z" fill="#FD8F07" p-id="1228"></path><path d="M480 384a16 16 0 0 1-11.68-26.88l224-240a16 16 0 0 1 23.36 21.76C470.4 401.76 489.92 384 480 384zM624 464a16 16 0 0 1-11.36-27.36l144-144a16 16 0 0 1 22.72 22.72C624 471.52 633.44 464 624 464zM576 512a16 16 0 0 1-11.36-27.36l16-16a16 16 0 0 1 22.72 22.72C586.4 508.32 584.32 512 576 512zM848 432a16 16 0 0 1-11.36-27.36l56-56a16 16 0 0 1 22.72 22.72C855.2 432 856.96 432 848 432zM560 720a16 16 0 0 1-11.36-27.36l208-208a16 16 0 0 1 22.72 22.72C553.92 732.64 569.44 720 560 720zM272 416a16 16 0 0 1-11.36-27.36l176-176a16 16 0 0 1 22.72 22.72C267.84 426.72 281.44 416 272 416zM208 480a16 16 0 0 1-11.36-27.36l16-16a16 16 0 0 1 22.72 22.72C218.4 476.32 216.32 480 208 480z" fill="#68539B" p-id="1229"></path><path d="M752 720a16 16 0 0 1-32 0 16 16 0 0 1 32 0zM672 272a16 16 0 0 1-32 0 16 16 0 0 1 32 0z" fill="#FD7504" p-id="1230"></path><path d="M784 176a16 16 0 0 1-32 0 16 16 0 0 1 32 0z" fill="#FED370" p-id="1231"></path><path d="M320 272a16 16 0 0 1-32 0 16 16 0 0 1 32 0zM880 288a16 16 0 0 1-32 0 16 16 0 0 1 32 0z" fill="#FDA736" p-id="1232"></path><path d="M944 496a16 16 0 0 1-32 0 16 16 0 0 1 32 0zM512 880a16 16 0 0 1-32 0 16 16 0 0 1 32 0z" fill="#FD8F07" p-id="1233"></path><path d="M368 128a16 16 0 0 1-32 0 16 16 0 0 1 32 0z" fill="#FED370" p-id="1234"></path><path d="M144 480a16 16 0 0 1-32 0 16 16 0 0 1 32 0z" fill="#FD8F07" p-id="1235"></path><path d="M640 832v-16a16 16 0 0 1 32 0v16a16 16 0 0 1-32 0zM704 880h-16a16 16 0 0 1 0-32h16a16 16 0 0 1 0 32zM624 880h-16a16 16 0 0 1 0-32h16a16 16 0 0 1 0 32zM640 912v-16a16 16 0 0 1 32 0v16a16 16 0 0 1-32 0z" fill="#FED370" p-id="1236"></path><path d="M496 96V80a16 16 0 0 1 32 0v16a16 16 0 0 1-32 0zM560 144h-16a16 16 0 0 1 0-32h16a16 16 0 0 1 0 32zM480 144h-16a16 16 0 0 1 0-32h16a16 16 0 0 1 0 32zM496 176v-16a16 16 0 0 1 32 0v16a16 16 0 0 1-32 0z" fill="#FD8F07" p-id="1237"></path><path d="M410.24 845.76A16 16 0 0 1 400 817.6c7.2-6.08 6.72-5.92 53.92-53.12a128 128 0 0 0 0-180.96 16 16 0 0 1 0-22.56 80 80 0 0 0-14.56-125.44 16 16 0 1 1 17.12-26.88 112 112 0 0 1 30.24 163.2 158.4 158.4 0 0 1 36.8 101.92C523.36 750.72 478.88 784 432 832c-8.96 8.32-14.08 13.76-21.76 13.76zM204.8 515.52c92.16-92.16 114.4-128 181.12-128a16 16 0 0 1 0 32c-52.16 0-66.56 26.08-159.04 118.72-124.8 125.6-18.88 344 122.88 304.96a16 16 0 0 1 8.32 30.88C183.2 921.92 56.64 664.16 204.8 515.52z" fill="#35214C" p-id="1238"></path></svg>