<?xml version="1.0" standalone="no"?><!DOCTYPE svg PUBLIC "-//W3C//DTD SVG 1.1//EN" "http://www.w3.org/Graphics/SVG/1.1/DTD/svg11.dtd"><svg t="1584030891616" class="icon" viewBox="0 0 1024 1024" version="1.1" xmlns="http://www.w3.org/2000/svg" p-id="1366" xmlns:xlink="http://www.w3.org/1999/xlink" width="200" height="200"><defs><style type="text/css"></style></defs><path d="M326.08 585.6l-83.2 48-48-83.2 83.2-48z" fill="#D82FEA" p-id="1367"></path><path d="M250.4 585.6l-26.4 15.2-29.12-50.4 54.08-31.2 13.12 22.72a32 32 0 0 1-11.68 43.68z" fill="#E667F9" p-id="1368"></path><path d="M445.28 572.16l-53.76 31.04a48 48 0 0 1-65.44-17.6l-48-83.2a48 48 0 0 1 17.44-65.6L448 348.8l57.44 99.2a80 80 0 0 0-60.16 124.16z" fill="#D82FEA" p-id="1369"></path><path d="M384 512a80 80 0 0 1-53.28 80c-3.2-3.52 0.96 3.2-52.64-89.76a48 48 0 0 1 17.44-65.6l123.36-71.2a76.32 76.32 0 0 1-12.64 91.2A80 80 0 0 0 384 512z" fill="#E667F9" p-id="1370"></path><path d="M768 422.88l-176 101.6A80 80 0 0 0 505.44 448L448 348.8a32 32 0 0 1 11.68-43.68L640 201.12z" fill="#D82FEA" p-id="1371"></path><path d="M634.56 446.88L576 480a80 80 0 0 0-64-32c-9.6 0 0 12.32-64-99.2a32 32 0 0 1 11.68-43.68l139.04-80 65.12 112.8a80 80 0 0 1-29.28 108.96z" fill="#E667F9" p-id="1372"></path><path d="M853.12 410.56l-55.36 32a16 16 0 0 1-21.92-5.92l-144-249.28a16 16 0 0 1 5.92-21.92l55.36-32a16 16 0 0 1 21.92 5.92l144 249.28a16 16 0 0 1-5.92 21.92z" fill="#6163AA" p-id="1373"></path><path d="M805.12 394.56l-40.16 23.2-133.12-230.4a16 16 0 0 1 5.92-21.92l40.16-23.2 133.12 230.4a16 16 0 0 1-5.92 21.92z" fill="#898EC9" p-id="1374"></path><path d="M859.04 388.64l-144-249.28c46.72-27.04 110.72 32 141.28 84.64 39.68 68.8 40.96 142.56 2.72 164.64z" fill="#2DE0C7" p-id="1375"></path><path d="M812.32 307.68L715.04 139.36c29.6-17.12 74.4 1.92 112 43.36 19.68 55.04 15.2 106.4-14.72 124.96z" fill="#93E6D9" p-id="1376"></path><path d="M231.2 677.28l-55.52 32c-25.12-43.68-8.8-16-80-138.56l54.08-32a32 32 0 0 1 45.12 10.88l48 83.2a32 32 0 0 1-11.68 44.48z" fill="#6163AA" p-id="1377"></path><path d="M183.2 661.28l-26.4 16L96 570.72l54.08-32 45.12 78.08a32 32 0 0 1-12 44.48z" fill="#898EC9" p-id="1378"></path><path d="M592 528a80 80 0 1 1-80-80 80 80 0 0 1 80 80z" fill="#6163AA" p-id="1379"></path><path d="M441.92 566.4a80 80 0 0 1 108.32-108.64 80 80 0 0 1-108.32 108.64z" fill="#898EC9" p-id="1380"></path><path d="M242.88 649.6c-12.32 0-9.92-1.12-61.92-91.2a16 16 0 0 1 5.92-21.76c89.12-51.52 86.56-52 95.2-49.6s6.56 1.92 57.76 90.56a16 16 0 0 1-5.76 21.76c-89.76 51.84-85.12 50.24-91.2 50.24z m-26.08-93.28l32 55.36 55.36-32-32-55.36z" fill="#35214C" p-id="1381"></path><path d="M368 625.6a64 64 0 0 1-55.52-32l-48-83.2A64 64 0 0 1 288 423.04l30.88-17.92a16 16 0 0 1 16 27.84L304 450.72a32 32 0 0 0-11.52 43.68l48 83.2a32 32 0 0 0 43.52 11.68l40.32-23.2A96 96 0 0 1 480 437.28l-38.56-66.56-52.8 30.4a16 16 0 0 1-16-27.84l66.72-38.4a16 16 0 0 1 21.92 5.92l57.44 99.52a16 16 0 0 1-12.64 24 64 64 0 0 0-48 99.04 16 16 0 0 1-5.44 22.72c-48.16 28.16-61.76 39.52-84.64 39.52z" fill="#35214C" p-id="1382"></path><path d="M592 540.48a16 16 0 0 1-16-16A64 64 0 0 0 506.72 464c-13.6 1.12-10.88 0-72.64-107.52a48 48 0 0 1 17.6-65.6l180.16-104a16 16 0 0 1 21.92 5.92l128 221.76a16 16 0 0 1-5.92 21.92l-38.24 22.4a16 16 0 0 1-16-27.84l24.32-14.08-112-193.92-166.24 96a16 16 0 0 0-5.76 21.76l52.64 91.2a96 96 0 0 1 88.96 67.2l64-36.48a16 16 0 0 1 16 27.84c-90.4 51.68-85.76 49.92-91.52 49.92z" fill="#35214C" p-id="1383"></path><path d="M789.92 460.8a32 32 0 0 1-27.84-16c-154.88-267.84-152.16-256-147.36-273.6s13.28-18.4 70.4-51.52a32 32 0 0 1 43.68 11.84L809.76 272a16 16 0 0 1-27.84 16l-80-139.84-55.36 32 144 249.28 55.36-32-32-54.72a16 16 0 0 1 27.84-16l32 54.72a32 32 0 0 1-11.68 43.68c-56.96 31.68-60.32 35.68-72.16 35.68z" fill="#35214C" p-id="1384"></path><path d="M795.84 295.2c-13.28 0-9.44 0-94.72-147.84a16 16 0 0 1 5.92-21.92 77.6 77.6 0 0 1 73.6 1.92 16 16 0 0 1-13.76 28.8 64 64 0 0 0-27.68-7.04L809.76 272a16 16 0 0 1-13.92 23.2z" fill="#35214C" p-id="1385"></path><path d="M859.04 404.64c-12 0-11.84-4.64-45.6-62.72a16 16 0 0 1 27.84-16l21.28 36.8c25.6-44.16-8.64-126.72-49.92-171.36a16 16 0 0 1 23.68-21.76 256 256 0 0 1 33.76 46.4c62.56 108.32 21.28 188.64-11.04 188.64zM176 725.28c-10.56 0-13.92-8.16-18.08-15.2A16 16 0 0 1 179.84 688c46.56-26.72 48-26.24 50.72-34.56s1.6-6.72-49.6-96a16 16 0 0 0-20.96-4.8L117.6 576l36.16 64a16 16 0 0 1-27.84 16c-48-83.84-48-80-45.76-88.64S82.88 560 144 524.8a48 48 0 0 1 64 17.6c49.76 86.08 59.68 94.24 52.8 119.52S240 691.2 183.68 723.2a16 16 0 0 1-7.68 2.08zM432 581.12A96 96 0 1 1 608 528a96 96 0 0 1-176 53.12zM512 464a64 64 0 1 0 64 64 64 64 0 0 0-64-64z" fill="#35214C" p-id="1386"></path><path d="M496 896V608a16 16 0 0 1 32 0v288a16 16 0 0 1-32 0zM288 848a16 16 0 0 1-12.8-25.44l176-240a16 16 0 0 1 25.6 18.88C285.76 862.08 299.52 848 288 848zM736 848c-11.52 0 2.24 13.92-189.44-246.24a16 16 0 0 1 25.92-18.88l176 240A16 16 0 0 1 736 848z" fill="#35214C" p-id="1387"></path></svg>